Format                           : MPEG-4
Format profile                   : Base Media / Version 2
Codec ID                         : mp42
File size                        : 490 MiB
Duration                         : 2h 36mn
Overall bit rate                 : 437 Kbps
Encoded date                     : UTC 2013-02-28 05:00:23
Tagged date                      : UTC 2013-02-28 05:00:23

Video
ID                               : 1
Format                           : AVC
Format/Info                      : Advanced Video Codec
Format profile                   : Main@L3.0
Format settings, CABAC           : Yes
Format settings, ReFrames        : 3 frames
Codec ID                         : avc1
Codec ID/Info                    : Advanced Video Coding
Duration                         : 2h 36mn
Bit rate mode                    : Variable
Bit rate                         : 308 Kbps
Width                            : 688 pixels
Height                           : 288 pixels
Display aspect ratio             : 2.35:1
Frame rate mode                  : Variable
Frame rate                       : 30.000 fps
Minimum frame rate               : 30.000 fps
Maximum frame rate               : 30.030 fps
Standard                         : NTSC
Resolution                       : 8 bits
Colorimetry                      : 4:2:0
Scan type                        : Progressive
Bits/(Pixel*Frame)               : 0.052
Stream size                      : 346 MiB (71%)
Language                         : English
Encoded date                     : UTC 2013-02-28 05:00:23
Tagged date                      : UTC 2013-02-28 05:00:23

Audio
ID                               : 2
Format                           : AAC
Format/Info                      : Advanced Audio Codec
Format version                   : Version 4
Format profile                   : LC
Format settings, SBR             : No
Codec ID                         : 40
Duration                         : 2h 36mn
Bit rate mode                    : Variable
Bit rate                         : 126 Kbps
Maximum bit rate                 : 526 Kbps
Channel(s)                       : 2 channels
Channel positions                : Front: L R
Sampling rate                    : 44.1 KHz
Stream size                      : 141 MiB (29%)
Language                         : English